<svg width="15" height="13" viewBox="0 0 15 13" fill="none" xmlns="http://www.w3.org/2000/svg">
<path d="M1.99316 12.186H12.9746C14.3076 12.186 14.9678 11.5259 14.9678 10.2183V2.46777C14.9678 1.16016 14.3076 0.5 12.9746 0.5H1.99316C0.666504 0.5 0 1.15381 0 2.46777V10.2183C0 11.5322 0.666504 12.186 1.99316 12.186ZM1.02197 2.51855C1.02197 1.8584 1.37109 1.52197 2.00586 1.52197H12.9619C13.5903 1.52197 13.9458 1.8584 13.9458 2.51855V2.63281H1.02197V2.51855ZM2.00586 11.1641C1.37109 11.1641 1.02197 10.8276 1.02197 10.1675V3.52783H13.9458V10.1675C13.9458 10.8276 13.5903 11.1641 12.9619 11.1641H2.00586ZM2.72949 9.60254C2.72949 9.93262 2.95801 10.1548 3.29443 10.1548H11.6924C12.0288 10.1548 12.2573 9.93262 12.2573 9.60254V8.65039C12.2573 8.32031 12.0288 8.09814 11.6924 8.09814H3.29443C2.95801 8.09814 2.72949 8.32031 2.72949 8.65039V9.60254Z" fill="#0A84FF"/>
</svg>
