<svg width="19" height="14" viewBox="0 0 19 14" fill="none" xmlns="http://www.w3.org/2000/svg">
<path d="M9.37855 13.9655C9.46852 13.9655 9.5585 13.9374 9.64847 13.8811C9.74406 13.8249 9.87059 13.7209 10.028 13.569L12.0018 11.6712C12.0693 11.6093 12.1058 11.539 12.1115 11.4603C12.1227 11.376 12.1002 11.2972 12.044 11.2241C11.7797 10.8811 11.4114 10.5831 10.939 10.33C10.4723 10.077 9.95213 9.95046 9.37855 9.95046C8.79373 9.95046 8.26233 10.0826 7.78435 10.3469C7.31199 10.6112 6.94367 10.9205 6.67937 11.2747C6.64001 11.3366 6.62595 11.4041 6.6372 11.4772C6.65407 11.5447 6.69624 11.6093 6.76372 11.6712L8.7375 13.569C8.88932 13.7209 9.01304 13.8249 9.10863 13.8811C9.20423 13.9374 9.2942 13.9655 9.37855 13.9655ZM4.63812 9.53715C4.72247 9.6215 4.81525 9.66086 4.91647 9.65524C5.01769 9.64961 5.11047 9.60182 5.19482 9.51184C5.67843 8.96638 6.29418 8.51933 7.04207 8.17069C7.78997 7.82204 8.5688 7.65053 9.37855 7.65616C10.1996 7.65053 10.984 7.82767 11.7319 8.18756C12.4798 8.54183 13.1012 8.99169 13.596 9.53715C13.6747 9.6215 13.7619 9.66367 13.8575 9.66367C13.9531 9.65805 14.0403 9.61306 14.119 9.52871L15.3758 8.28878C15.4433 8.2213 15.4798 8.1482 15.4854 8.06947C15.4911 7.98512 15.4658 7.90639 15.4095 7.83329C14.999 7.33282 14.4845 6.88577 13.8659 6.49214C13.2474 6.09288 12.5557 5.78079 11.7909 5.55586C11.0262 5.3253 10.222 5.21003 9.37855 5.21003C8.53506 5.21003 7.73093 5.3253 6.96616 5.55586C6.20701 5.78079 5.51816 6.09288 4.8996 6.49214C4.28104 6.88577 3.76651 7.33282 3.35601 7.83329C3.29415 7.90639 3.26603 7.98231 3.27166 8.06103C3.27728 8.13976 3.31383 8.21567 3.38131 8.28878L4.63812 9.53715ZM1.26414 6.15474C1.34287 6.23909 1.43284 6.28126 1.53406 6.28126C1.6409 6.27564 1.73088 6.23065 1.80398 6.1463C2.80492 5.08913 3.94926 4.28781 5.237 3.74235C6.52473 3.19126 7.90525 2.91572 9.37855 2.91572C10.8575 2.91572 12.2408 3.19126 13.5285 3.74235C14.8219 4.29343 15.9662 5.09756 16.9616 6.15474C17.0347 6.22784 17.1218 6.26439 17.223 6.26439C17.3243 6.26439 17.4114 6.22222 17.4845 6.13787L18.5979 5.01602C18.671 4.94854 18.7076 4.87263 18.7076 4.78828C18.7132 4.69831 18.6879 4.61958 18.6317 4.5521C17.9962 3.77046 17.1949 3.07318 16.2277 2.46024C15.2605 1.84168 14.1893 1.35807 13.014 1.00943C11.8444 0.655161 10.6325 0.478027 9.37855 0.478027C8.12456 0.478027 6.90993 0.655161 5.73466 1.00943C4.55939 1.35807 3.48815 1.84168 2.52095 2.46024C1.55937 3.07318 0.760858 3.77046 0.125426 4.5521C0.0691931 4.61958 0.0410767 4.69831 0.0410767 4.78828C0.0467 4.87263 0.0832513 4.94854 0.150731 5.01602L1.26414 6.15474Z" fill="white" fill-opacity="0.9"/>
</svg>
