<svg width="26" height="13" viewBox="0 0 26 13" fill="none" xmlns="http://www.w3.org/2000/svg">
<path d="M4.99832 12.1942H18.4689C19.1887 12.1942 19.8466 12.1351 20.4427 12.017C21.0388 11.8989 21.5505 11.6262 21.9778 11.1988C22.4108 10.7658 22.6836 10.2541 22.796 9.66368C22.9085 9.07324 22.9647 8.41531 22.9647 7.68991V4.8389C22.9647 4.11912 22.9085 3.464 22.796 2.87356C22.6836 2.28311 22.4108 1.77139 21.9778 1.3384C21.5449 0.911031 21.0303 0.638301 20.4343 0.520212C19.8438 0.402123 19.1887 0.343079 18.4689 0.343079H4.98145C4.27292 0.343079 3.62062 0.402123 3.02455 0.520212C2.4341 0.638301 1.92238 0.913843 1.48939 1.34684C1.06202 1.77421 0.78929 2.28311 0.671201 2.87356C0.558735 3.464 0.502502 4.11349 0.502502 4.82203V7.68991C0.502502 8.41531 0.558735 9.07324 0.671201 9.66368C0.783667 10.2541 1.0564 10.7658 1.48939 11.1988C1.92238 11.6262 2.4341 11.8989 3.02455 12.017C3.62062 12.1351 4.27854 12.1942 4.99832 12.1942ZM4.77058 10.8361C4.33759 10.8361 3.91022 10.794 3.48847 10.7096C3.07235 10.6253 2.73495 10.4566 2.47628 10.2035C2.22323 9.95047 2.05734 9.61588 1.97862 9.19976C1.89989 8.78364 1.86053 8.35908 1.86053 7.92609V4.63646C1.86053 4.19222 1.89989 3.76204 1.97862 3.34592C2.05734 2.92417 2.22323 2.58396 2.47628 2.32529C2.72933 2.07224 3.06672 1.90635 3.48847 1.82763C3.91584 1.74328 4.35164 1.7011 4.79588 1.7011H18.6967C19.1297 1.7011 19.5542 1.74328 19.9703 1.82763C20.3921 1.90635 20.7323 2.07505 20.991 2.33372C21.244 2.58677 21.4099 2.92136 21.4886 3.33748C21.5673 3.7536 21.6067 4.17816 21.6067 4.61116V7.92609C21.6067 8.35908 21.5673 8.78364 21.4886 9.19976C21.4099 9.61588 21.244 9.95047 20.991 10.2035C20.7323 10.4622 20.3921 10.6337 19.9703 10.718C19.5542 10.7968 19.1297 10.8361 18.6967 10.8361H4.77058ZM24.1119 8.44905C24.3368 8.43218 24.5702 8.33377 24.812 8.15383C25.0538 7.96826 25.259 7.71521 25.4277 7.39468C25.5964 7.07416 25.6808 6.6974 25.6808 6.2644C25.6808 5.83703 25.5964 5.46308 25.4277 5.14256C25.259 4.82203 25.0538 4.56898 24.812 4.38341C24.5702 4.19784 24.3368 4.09944 24.1119 4.08819V8.44905ZM4.43318 9.7649H19.0425C19.3349 9.7649 19.5711 9.74241 19.751 9.69742C19.931 9.65244 20.0856 9.56809 20.2149 9.44437C20.3387 9.32066 20.423 9.16883 20.468 8.98889C20.5186 8.80332 20.5439 8.56433 20.5439 8.27192V4.26532C20.5439 3.97291 20.5186 3.73673 20.468 3.55679C20.423 3.37122 20.3387 3.21658 20.2149 3.09287C20.0856 2.96353 19.931 2.87918 19.751 2.83982C19.5711 2.79483 19.3349 2.77234 19.0425 2.77234H4.43318C4.13515 2.77234 3.89616 2.79483 3.71621 2.83982C3.53627 2.87918 3.38444 2.96353 3.26073 3.09287C3.13701 3.21658 3.04985 3.37122 2.99924 3.55679C2.95426 3.73673 2.93176 3.97291 2.93176 4.26532V8.27192C2.93176 8.56433 2.95426 8.80332 2.99924 8.98889C3.04985 9.16883 3.13701 9.32066 3.26073 9.44437C3.39006 9.56809 3.54189 9.65244 3.71621 9.69742C3.89616 9.74241 4.13515 9.7649 4.43318 9.7649Z" fill="white" fill-opacity="0.9"/>
</svg>
