<svg width="14" height="17" viewBox="0 0 14 17" fill="none" xmlns="http://www.w3.org/2000/svg">
<path d="M4.21977 16.2186H10.3435C11.0127 16.2186 11.62 16.0723 12.1655 15.7799C12.7109 15.4931 13.1439 15.0883 13.4645 14.5653C13.7906 14.048 13.9537 13.4435 13.9537 12.7518C13.9537 12.0601 13.7906 11.4556 13.4645 10.9383C13.1439 10.4153 12.7109 10.0104 12.1655 9.72365C11.62 9.43124 11.0127 9.28504 10.3435 9.28504H4.21977C3.5506 9.28504 2.94328 9.43124 2.39783 9.72365C1.85237 10.0104 1.41656 10.4153 1.09041 10.9383C0.769883 11.4556 0.609619 12.0601 0.609619 12.7518C0.609619 13.4435 0.769883 14.048 1.09041 14.5653C1.41656 15.0883 1.85237 15.4931 2.39783 15.7799C2.94328 16.0723 3.5506 16.2186 4.21977 16.2186ZM10.5628 14.9449C10.158 14.9393 9.78964 14.838 9.45787 14.6412C9.12609 14.4444 8.8618 14.1801 8.66498 13.8483C8.47379 13.5166 8.37819 13.1482 8.37819 12.7434C8.37819 12.3441 8.47379 11.9786 8.66498 11.6468C8.8618 11.315 9.12609 11.0508 9.45787 10.8539C9.78964 10.6571 10.158 10.5587 10.5628 10.5587C10.9677 10.5587 11.336 10.6571 11.6678 10.8539C12.0052 11.0508 12.2723 11.315 12.4691 11.6468C12.666 11.973 12.7615 12.3357 12.7559 12.7349C12.7559 13.1398 12.6547 13.5109 12.4523 13.8483C12.2555 14.1857 11.9912 14.4528 11.6594 14.6497C11.3332 14.8465 10.9677 14.9449 10.5628 14.9449ZM4.5656 7.98606H10.0061C10.7259 7.98606 11.3838 7.82579 11.9799 7.50527C12.5816 7.18474 13.0596 6.73488 13.4139 6.15568C13.7737 5.57648 13.9537 4.90449 13.9537 4.13973C13.9537 3.37496 13.7737 2.70298 13.4139 2.12378C13.0596 1.54458 12.5816 1.09471 11.9799 0.774187C11.3838 0.45366 10.7259 0.293396 10.0061 0.293396H4.5656C3.8402 0.293396 3.17665 0.45366 2.57496 0.774187C1.97889 1.09471 1.50091 1.54458 1.14102 2.12378C0.786753 2.70298 0.609619 3.37496 0.609619 4.13973C0.609619 4.90449 0.786753 5.57648 1.14102 6.15568C1.50091 6.73488 1.97889 7.18474 2.57496 7.50527C3.17665 7.82579 3.8402 7.98606 4.5656 7.98606ZM4.5656 6.71238C4.09325 6.71238 3.65182 6.60554 3.24132 6.39185C2.83644 6.17255 2.50748 5.8717 2.25443 5.48932C2.00701 5.10131 1.88329 4.65145 1.88329 4.13973C1.88329 3.62801 2.00701 3.18096 2.25443 2.79857C2.50748 2.41056 2.83644 2.10972 3.24132 1.89603C3.65182 1.67673 4.09325 1.56707 4.5656 1.56707H10.0061C10.4729 1.56707 10.9087 1.67673 11.3136 1.89603C11.7241 2.10972 12.053 2.41056 12.3004 2.79857C12.5535 3.18096 12.68 3.62801 12.68 4.13973C12.68 4.65145 12.5535 5.10131 12.3004 5.48932C12.053 5.8717 11.7241 6.17255 11.3136 6.39185C10.9087 6.60554 10.4729 6.71238 10.0061 6.71238H4.5656ZM4.5656 6.13881C4.93674 6.14443 5.27133 6.05727 5.56936 5.87732C5.87302 5.69175 6.11482 5.44714 6.29477 5.14348C6.48033 4.8342 6.57312 4.49399 6.57312 4.12286C6.57874 3.75172 6.49158 3.41713 6.31164 3.1191C6.13169 2.81544 5.88708 2.57645 5.5778 2.40213C5.27414 2.22218 4.93674 2.13221 4.5656 2.13221C4.19447 2.13221 3.85707 2.22218 3.55341 2.40213C3.24975 2.58208 3.00795 2.82388 2.82801 3.12753C2.65369 3.43119 2.56652 3.76578 2.56652 4.13129C2.56652 4.50243 2.65369 4.83983 2.82801 5.14348C3.00795 5.44714 3.24975 5.68894 3.55341 5.86889C3.85707 6.04883 4.19447 6.13881 4.5656 6.13881Z" fill="white" fill-opacity="0.9"/>
</svg>
